<svg width="391" height="166" viewBox="0 0 391 166" fill="none" xmlns="http://www.w3.org/2000/svg">
<g filter="url(#filter0_d_271_9706)">
<path d="M68.9651 13L29.7988 95.6257C28.5812 98.3259 28.5135 100.419 29.5958 101.904C30.8134 103.254 32.5722 103.929 34.8721 103.929H117.872V116.687L99.2022 118.51H24.9283C21.1402 118.51 17.9609 117.43 15.3904 115.27C12.8199 113.109 11.1288 110.342 10.3171 106.966C9.64064 103.591 10.0465 100.216 11.5347 96.8408L51.3098 13H68.9651ZM99.8111 39.7318V152.735H82.9675V62.8184L86.0115 39.7318H99.8111Z" fill="#F5B9EB"/>
<path d="M332.093 13L292.927 95.6257C291.709 98.3259 291.641 100.419 292.724 101.904C293.941 103.254 295.7 103.929 298 103.929H381V116.687L362.33 118.51H288.056C284.268 118.51 281.089 117.43 278.518 115.27C275.948 113.109 274.257 110.342 273.445 106.966C272.768 103.591 273.174 100.216 274.662 96.8408L314.438 13H332.093ZM362.939 39.7318V152.735H346.095V62.8184L349.139 39.7318H362.939Z" fill="#F5B9EB"/>
</g>
<g clip-path="url(#clip0_271_9706)">
<g filter="url(#filter1_d_271_9706)">
<path d="M171.656 67.4375C168.065 67.4375 164.555 68.5023 161.569 70.4974C158.583 72.4924 156.256 75.328 154.882 78.6457C153.508 81.9633 153.148 85.6139 153.849 89.1359C154.549 92.6578 156.279 95.893 158.818 98.4322C161.357 100.971 164.592 102.701 168.114 103.401C171.636 104.102 175.287 103.742 178.604 102.368C181.922 100.994 184.758 98.6666 186.753 95.6808C188.748 92.695 189.812 89.1847 189.812 85.5938C189.812 80.7784 187.9 76.1603 184.495 72.7553C181.09 69.3504 176.472 67.4375 171.656 67.4375ZM171.656 93.375C170.117 93.375 168.613 92.9186 167.333 92.0636C166.054 91.2086 165.056 89.9933 164.467 88.5715C163.878 87.1497 163.724 85.5851 164.025 84.0757C164.325 82.5663 165.066 81.1798 166.154 80.0916C167.242 79.0033 168.629 78.2623 170.138 77.962C171.648 77.6618 173.212 77.8159 174.634 78.4048C176.056 78.9938 177.271 79.9911 178.126 81.2707C178.981 82.5503 179.438 84.0548 179.438 85.5938C179.438 87.6575 178.618 89.6367 177.158 91.0959C175.699 92.5552 173.72 93.375 171.656 93.375ZM218.344 67.4375C214.753 67.4375 211.242 68.5023 208.257 70.4974C205.271 72.4924 202.944 75.328 201.57 78.6457C200.195 81.9633 199.836 85.6139 200.536 89.1359C201.237 92.6578 202.966 95.893 205.505 98.4322C208.045 100.971 211.28 102.701 214.802 103.401C218.324 104.102 221.974 103.742 225.292 102.368C228.609 100.994 231.445 98.6666 233.44 95.6808C235.435 92.695 236.5 89.1847 236.5 85.5938C236.5 80.7784 234.587 76.1603 231.182 72.7553C227.777 69.3504 223.159 67.4375 218.344 67.4375ZM218.344 93.375C216.805 93.375 215.3 92.9186 214.021 92.0636C212.741 91.2086 211.744 89.9933 211.155 88.5715C210.566 87.1497 210.412 85.5851 210.712 84.0757C211.012 82.5663 211.753 81.1798 212.842 80.0916C213.93 79.0033 215.316 78.2623 216.826 77.962C218.335 77.6618 219.9 77.8159 221.322 78.4048C222.743 78.9938 223.959 79.9911 224.814 81.2707C225.669 82.5503 226.125 84.0548 226.125 85.5938C226.125 87.6575 225.305 89.6367 223.846 91.0959C222.387 92.5552 220.407 93.375 218.344 93.375ZM195 10.375C157.812 10.375 127.562 39.4639 127.562 75.2188C127.562 97.3305 139.409 118.016 158.688 129.869V140.062C158.688 142.814 159.781 145.453 161.726 147.399C163.672 149.344 166.311 150.438 169.062 150.438H220.938C223.689 150.438 226.328 149.344 228.274 147.399C230.219 145.453 231.312 142.814 231.312 140.062V129.869C250.591 118.016 262.438 97.3305 262.438 75.2188C262.438 39.4639 232.188 10.375 195 10.375ZM223.609 122.354C222.799 122.803 222.124 123.461 221.654 124.259C221.185 125.057 220.937 125.967 220.938 126.893V140.062H210.562V124.5C210.562 123.124 210.016 121.805 209.043 120.832C208.07 119.859 206.751 119.312 205.375 119.312C203.999 119.312 202.68 119.859 201.707 120.832C200.734 121.805 200.188 123.124 200.188 124.5V140.062H189.812V124.5C189.812 123.124 189.266 121.805 188.293 120.832C187.32 119.859 186.001 119.312 184.625 119.312C183.249 119.312 181.93 119.859 180.957 120.832C179.984 121.805 179.438 123.124 179.438 124.5V140.062H169.062V126.893C169.063 125.967 168.815 125.057 168.346 124.259C167.876 123.461 167.201 122.803 166.391 122.354C148.838 112.627 137.938 94.5681 137.938 75.2188C137.938 45.1831 163.538 20.75 195 20.75C226.462 20.75 252.062 45.1831 252.062 75.2188C252.062 94.5616 241.162 112.627 223.609 122.354Z" fill="#F5B9EB"/>
</g>
</g>
<defs>
<filter id="filter0_d_271_9706" x="0" y="3" width="391" height="159.735" filterUnits="userSpaceOnUse" color-interpolation-filters="sRGB">
<feFlood flood-opacity="0" result="BackgroundImageFix"/>
<feColorMatrix in="SourceAlpha" type="matrix" values="0 0 0 0 0 0 0 0 0 0 0 0 0 0 0 0 0 0 127 0" result="hardAlpha"/>
<feOffset/>
<feGaussianBlur stdDeviation="5"/>
<feComposite in2="hardAlpha" operator="out"/>
<feColorMatrix type="matrix" values="0 0 0 0 0.960784 0 0 0 0 0.72549 0 0 0 0 0.921569 0 0 0 1 0"/>
<feBlend mode="normal" in2="BackgroundImageFix" result="effect1_dropShadow_271_9706"/>
<feBlend mode="normal" in="SourceGraphic" in2="effect1_dropShadow_271_9706" result="shape"/>
</filter>
<filter id="filter1_d_271_9706" x="115.562" y="-1.625" width="158.875" height="164.062" filterUnits="userSpaceOnUse" color-interpolation-filters="sRGB">
<feFlood flood-opacity="0" result="BackgroundImageFix"/>
<feColorMatrix in="SourceAlpha" type="matrix" values="0 0 0 0 0 0 0 0 0 0 0 0 0 0 0 0 0 0 127 0" result="hardAlpha"/>
<feOffset/>
<feGaussianBlur stdDeviation="6"/>
<feComposite in2="hardAlpha" operator="out"/>
<feColorMatrix type="matrix" values="0 0 0 0 0.960784 0 0 0 0 0.72549 0 0 0 0 0.921569 0 0 0 1 0"/>
<feBlend mode="normal" in2="BackgroundImageFix" result="effect1_dropShadow_271_9706"/>
<feBlend mode="normal" in="SourceGraphic" in2="effect1_dropShadow_271_9706" result="shape"/>
</filter>
<clipPath id="clip0_271_9706">
<rect width="166" height="166" fill="white" transform="translate(112)"/>
</clipPath>
</defs>
</svg>
