<svg width="997" height="559" viewBox="0 0 997 559" fill="none" xmlns="http://www.w3.org/2000/svg">
<path d="M820.63 -96.7278C853.758 -139.648 915.528 -147.678 958.596 -114.664C1001.66 -81.6498 1009.72 -20.0929 976.594 22.8273L592.698 520.195C559.57 563.116 497.801 571.146 454.732 538.132C411.664 505.117 403.606 443.56 436.734 400.64L820.63 -96.7278Z" fill="#0C081E"/>
<path d="M232.302 -96.1955C265.43 -139.116 327.199 -147.146 370.267 -114.132C413.336 -81.1174 421.394 -19.5605 388.266 23.3597L4.36969 520.728C-28.7584 563.648 -90.5277 571.678 -133.596 538.664C-176.664 505.65 -184.722 444.093 -151.594 401.173L232.302 -96.1955Z" fill="#0C081E"/>
</svg>
