<svg width="786" height="432" viewBox="0 0 786 432" fill="none" xmlns="http://www.w3.org/2000/svg">
<g clip-path="url(#clip0_129_1224)">
<path d="M992.63 -96.7278C1025.76 -139.648 1087.53 -147.678 1130.6 -114.664C1173.66 -81.6498 1181.72 -20.0929 1148.59 22.8273L764.698 520.195C731.57 563.116 669.801 571.146 626.732 538.132C583.664 505.117 575.606 443.56 608.734 400.64L992.63 -96.7278Z" fill="#2E0026"/>
<path d="M404.302 -96.1955C437.43 -139.116 499.199 -147.146 542.268 -114.132C585.336 -81.1175 593.394 -19.5605 560.266 23.3597L176.37 520.728C143.242 563.648 81.4723 571.678 38.4041 538.664C-4.66402 505.65 -12.722 444.093 20.4061 401.173L404.302 -96.1955Z" fill="#2E0026"/>
</g>
<defs>
<clipPath id="clip0_129_1224">
<rect width="786" height="432" fill="white"/>
</clipPath>
</defs>
</svg>
