<svg width="41" height="41" viewBox="0 0 41 41" fill="none" xmlns="http://www.w3.org/2000/svg">
<path d="M34.8142 9.32353C35.9761 7.83926 38.1425 7.56156 39.6531 8.70326C41.1636 9.84496 41.4462 11.9737 40.2843 13.458L26.82 30.6581C25.6581 32.1423 23.4917 32.42 21.9812 31.2783C20.4707 30.1366 20.1881 28.0079 21.35 26.5236L34.8142 9.32353Z" fill="#730962"/>
<path d="M14.18 9.34194C15.3419 7.85767 17.5083 7.57997 19.0188 8.72167C20.5293 9.86337 20.8119 11.9921 19.65 13.4764L6.18576 30.6765C5.02387 32.1607 2.85745 32.4384 1.34694 31.2967C-0.16358 30.155 -0.446196 28.0263 0.715696 26.542L14.18 9.34194Z" fill="#730962"/>
</svg>
