<svg width="312" height="44" viewBox="0 0 312 44" fill="none" xmlns="http://www.w3.org/2000/svg">
<path d="M34.3923 1.32353C35.5401 -0.160737 37.6802 -0.438443 39.1724 0.70326C40.6646 1.84496 40.9438 3.97373 39.796 5.458L26.4949 22.6581C25.3471 24.1423 23.207 24.42 21.7148 23.2783C20.2226 22.1366 19.9434 20.0079 21.0912 18.5236L34.3923 1.32353Z" fill="#730962"/>
<path d="M14.0081 1.34194C15.1559 -0.142326 17.2961 -0.420032 18.7883 0.721671C20.2805 1.86337 20.5597 3.99215 19.4119 5.47641L6.11079 22.6765C4.96298 24.1607 2.82282 24.4384 1.33061 23.2967C-0.161597 22.155 -0.440788 20.0263 0.707021 18.542L14.0081 1.34194Z" fill="#730962"/>
<path d="M82.5685 8.75189C82.5685 10.246 82.1915 11.6102 81.4375 12.8445C80.7057 14.0572 79.7078 15.0316 78.4438 15.7678C77.1798 16.5041 75.7827 16.8722 74.2526 16.8722H60.8807V13.6566H74.2526C75.184 13.6566 76.0267 13.44 76.7807 13.0069C77.5346 12.5522 78.1334 11.9567 78.5769 11.2205C79.0204 10.4626 79.2421 9.63971 79.2421 8.75189C79.2421 7.84242 79.0204 7.01956 78.5769 6.28332C78.1334 5.54708 77.5346 4.96242 76.7807 4.52934C76.0267 4.09625 75.184 3.87971 74.2526 3.87971H59.018V23.3684H55.6917V0.631592H74.2526C75.7827 0.631592 77.1798 0.999712 78.4438 1.73595C79.7078 2.45054 80.7057 3.42498 81.4375 4.65926C82.1915 5.89355 82.5685 7.25776 82.5685 8.75189Z" fill="#F5B9EB"/>
<path d="M107.186 23.3684H102.662L97.4734 18.5287H90.7209V15.3131H99.9348C100.866 15.3131 101.653 14.9883 102.297 14.3387C102.962 13.6674 103.294 12.8878 103.294 12C103.294 11.0905 102.962 10.3218 102.297 9.69385C101.653 9.04422 100.866 8.71941 99.9348 8.71941H88.9912V23.3684H85.6648V5.50377H99.9348C101.177 5.50377 102.297 5.7961 103.294 6.38077C104.292 6.96543 105.091 7.7558 105.689 8.75189C106.288 9.72633 106.588 10.809 106.588 12C106.588 12.9744 106.377 13.8947 105.956 14.7609C105.556 15.6054 104.991 16.3417 104.259 16.9696C103.549 17.576 102.729 18.009 101.798 18.2689L107.186 23.3684Z" fill="#F5B9EB"/>
<path d="M129.641 23.3684H110.547V5.43881H129.641V8.71941H113.907V20.0878H129.641V23.3684ZM127.512 15.9627H115.47V12.6821H127.512V15.9627Z" fill="#F5B9EB"/>
<path d="M153.376 18.1065C153.376 19.0809 153.132 19.9687 152.645 20.7699C152.179 21.5495 151.536 22.1775 150.715 22.6538C149.895 23.1302 148.986 23.3684 147.988 23.3684H132.454V20.1203H147.988C148.564 20.1203 149.052 19.9254 149.451 19.5357C149.873 19.1459 150.083 18.6695 150.083 18.1065C150.083 17.5435 149.873 17.0671 149.451 16.6773C149.052 16.2659 148.564 16.0602 147.988 16.0602H137.809C136.833 16.0602 135.935 15.822 135.115 15.3456C134.316 14.8692 133.673 14.2304 133.186 13.4292C132.698 12.628 132.454 11.7402 132.454 10.7657C132.454 9.81295 132.698 8.93595 133.186 8.13475C133.673 7.33355 134.316 6.69475 135.115 6.21836C135.935 5.74197 136.833 5.50377 137.809 5.50377H152.146V8.71941H137.809C137.255 8.71941 136.767 8.92513 136.346 9.33655C135.946 9.72633 135.747 10.2027 135.747 10.7657C135.747 11.3287 135.946 11.816 136.346 12.2274C136.767 12.6172 137.255 12.812 137.809 12.812H147.988C148.986 12.812 149.895 13.0502 150.715 13.5266C151.536 14.003 152.179 14.6418 152.645 15.443C153.132 16.2442 153.376 17.132 153.376 18.1065Z" fill="#F5B9EB"/>
<path d="M176.895 18.1065C176.895 19.0809 176.651 19.9687 176.163 20.7699C175.697 21.5495 175.054 22.1775 174.234 22.6538C173.413 23.1302 172.504 23.3684 171.506 23.3684H155.972V20.1203H171.506C172.083 20.1203 172.57 19.9254 172.97 19.5357C173.391 19.1459 173.602 18.6695 173.602 18.1065C173.602 17.5435 173.391 17.0671 172.97 16.6773C172.57 16.2659 172.083 16.0602 171.506 16.0602H161.327C160.352 16.0602 159.454 15.822 158.633 15.3456C157.835 14.8692 157.192 14.2304 156.704 13.4292C156.216 12.628 155.972 11.7402 155.972 10.7657C155.972 9.81295 156.216 8.93595 156.704 8.13475C157.192 7.33355 157.835 6.69475 158.633 6.21836C159.454 5.74197 160.352 5.50377 161.327 5.50377H175.664V8.71941H161.327C160.773 8.71941 160.285 8.92513 159.864 9.33655C159.465 9.72633 159.265 10.2027 159.265 10.7657C159.265 11.3287 159.465 11.816 159.864 12.2274C160.285 12.6172 160.773 12.812 161.327 12.812H171.506C172.504 12.812 173.413 13.0502 174.234 13.5266C175.054 14.003 175.697 14.6418 176.163 15.443C176.651 16.2442 176.895 17.132 176.895 18.1065Z" fill="#F5B9EB"/>
<path d="M218.941 16.8722C218.941 18.0632 218.641 19.1567 218.043 20.1528C217.444 21.1272 216.645 21.9068 215.648 22.4914C214.65 23.0761 213.53 23.3684 212.288 23.3684H192.064V20.1203H212.288C213.219 20.1203 214.007 19.8063 214.65 19.1784C215.293 18.5287 215.614 17.76 215.614 16.8722C215.614 15.9844 215.293 15.2265 214.65 14.5985C214.007 13.9489 213.219 13.6241 212.288 13.6241H198.717C197.497 13.6241 196.377 13.3317 195.357 12.7471C194.359 12.1624 193.561 11.3829 192.962 10.4084C192.363 9.41234 192.064 8.31881 192.064 7.12783C192.064 5.93686 192.363 4.85415 192.962 3.87971C193.561 2.88362 194.359 2.09325 195.357 1.50858C196.377 0.923923 197.497 0.631592 198.717 0.631592H217.277V3.87971H198.717C197.807 3.87971 197.02 4.20452 196.355 4.85415C195.712 5.48212 195.39 6.24001 195.39 7.12783C195.39 8.01565 195.712 8.78437 196.355 9.434C197.02 10.062 197.807 10.376 198.717 10.376H212.288C213.53 10.376 214.65 10.6683 215.648 11.2529C216.645 11.8376 217.444 12.628 218.043 13.6241C218.641 14.5985 218.941 15.6812 218.941 16.8722Z" fill="#F5B9EB"/>
<path d="M231.949 23.3684H228.623V8.71941H219.808V5.50377H240.731V8.71941H231.949V23.3684Z" fill="#F5B9EB"/>
<path d="M263.582 23.3684H260.255V18.4638H247.449V15.1507H260.255V8.71941H251.607C250.52 8.71941 249.533 8.97926 248.646 9.49896C247.759 10.0187 247.05 10.7116 246.518 11.5778C245.985 12.4223 245.719 13.3751 245.719 14.4361V23.3684H242.36V14.4361C242.36 13.2018 242.593 12.0433 243.058 10.9606C243.546 9.85625 244.211 8.89264 245.054 8.06979C245.919 7.24693 246.906 6.60813 248.014 6.1534C249.145 5.677 250.343 5.43881 251.607 5.43881H263.582V23.3684Z" fill="#F5B9EB"/>
<path d="M289.908 23.3684H285.384L280.195 18.5287H273.442V15.3131H282.656C283.588 15.3131 284.375 14.9883 285.018 14.3387C285.683 13.6674 286.016 12.8878 286.016 12C286.016 11.0905 285.683 10.3218 285.018 9.69385C284.375 9.04422 283.588 8.71941 282.656 8.71941H271.713V23.3684H268.386V5.50377H282.656C283.898 5.50377 285.018 5.7961 286.016 6.38077C287.014 6.96543 287.812 7.7558 288.411 8.75189C289.01 9.72633 289.309 10.809 289.309 12C289.309 12.9744 289.098 13.8947 288.677 14.7609C288.278 15.6054 287.712 16.3417 286.98 16.9696C286.271 17.576 285.45 18.009 284.519 18.2689L289.908 23.3684Z" fill="#F5B9EB"/>
<path d="M303.218 23.3684H299.892V8.71941H291.077V5.50377H312V8.71941H303.218V23.3684Z" fill="#F5B9EB"/>
<path d="M60.0586 31.0182C60.6494 31.0303 61.2579 31.0605 61.8841 31.1089C62.5221 31.1574 63.1542 31.2542 63.7804 31.3994L63.6564 32.6885C63.1483 32.6643 62.5753 32.6462 61.9372 32.6341C61.311 32.622 60.7025 32.6159 60.1118 32.6159C59.6982 32.6159 59.3438 32.628 59.0484 32.6522C58.753 32.6764 58.5108 32.743 58.3217 32.852C58.1327 32.9609 57.9909 33.1364 57.8964 33.3785C57.8137 33.6206 57.7723 33.9534 57.7723 34.3771C57.7723 35.0186 57.8905 35.4725 58.1268 35.7388C58.3631 35.993 58.7471 36.1867 59.2788 36.3198L61.7423 36.9916C62.6875 37.2337 63.3374 37.6453 63.6918 38.2263C64.0463 38.7952 64.2235 39.5638 64.2235 40.5321C64.2235 41.2584 64.1408 41.8454 63.9754 42.2933C63.8218 42.7412 63.5737 43.0861 63.231 43.3282C62.9002 43.5703 62.4689 43.7398 61.9372 43.8366C61.4055 43.9334 60.7734 43.9818 60.0409 43.9818C59.6391 43.9818 59.1075 43.9637 58.4458 43.9274C57.7841 43.8911 57.022 43.7882 56.1595 43.6187L56.2836 42.2933C56.9807 42.3175 57.5478 42.3417 57.985 42.3659C58.434 42.378 58.818 42.3841 59.137 42.3841C59.456 42.3841 59.775 42.3841 60.094 42.3841C60.6848 42.3841 61.1515 42.3417 61.4942 42.257C61.8368 42.1601 62.079 41.9786 62.2208 41.7123C62.3626 41.4339 62.4335 41.0345 62.4335 40.514C62.4335 40.0661 62.3803 39.7151 62.274 39.4609C62.1795 39.2067 62.0199 39.0191 61.7955 38.898C61.5828 38.7649 61.3051 38.656 60.9625 38.5712L58.4281 37.8631C57.5419 37.6089 56.9157 37.1974 56.5494 36.6285C56.1831 36.0596 56 35.3031 56 34.3589C56 33.6327 56.0768 33.0456 56.2304 32.5978C56.3958 32.1499 56.6439 31.817 56.9748 31.5992C57.3056 31.3692 57.725 31.2179 58.2331 31.1453C58.7412 31.0605 59.3497 31.0182 60.0586 31.0182Z" fill="#20C1C7"/>
<path d="M68.8919 31.2179C69.4827 31.2179 70.0853 31.2179 70.6997 31.2179C71.3141 31.2179 71.9166 31.23 72.5074 31.2542C73.11 31.2663 73.683 31.2905 74.2266 31.3268L74.1557 32.7249H69.2818C68.9273 32.7249 68.6674 32.8156 68.502 32.9972C68.3366 33.1788 68.2539 33.4693 68.2539 33.8687V41.1313C68.2539 41.5307 68.3366 41.8273 68.502 42.021C68.6674 42.2025 68.9273 42.2933 69.2818 42.2933H74.1557L74.2266 43.6732C73.683 43.7095 73.11 43.7337 72.5074 43.7458C71.9166 43.7579 71.3141 43.764 70.6997 43.764C70.0853 43.7761 69.4827 43.7821 68.8919 43.7821C68.1593 43.7821 67.5745 43.5824 67.1373 43.183C66.712 42.7714 66.4934 42.2267 66.4816 41.5489V33.4511C66.4934 32.7612 66.712 32.2165 67.1373 31.817C67.5745 31.4176 68.1593 31.2179 68.8919 31.2179ZM66.8006 36.4651H73.4645V37.8631H66.8006V36.4651Z" fill="#20C1C7"/>
<path d="M78.2936 31.236V41.1131C78.2936 41.5005 78.3881 41.791 78.5772 41.9846C78.7662 42.1662 79.0557 42.257 79.4456 42.257H83.8232L83.9118 43.655C83.1202 43.7155 82.3167 43.7519 81.5015 43.764C80.6862 43.7761 79.8709 43.7821 79.0557 43.7821C78.1577 43.7821 77.5138 43.5582 77.1239 43.1103C76.734 42.6504 76.539 42.0754 76.539 41.3855V31.236H78.2936Z" fill="#20C1C7"/>
<path d="M88.0515 31.2179C88.6423 31.2179 89.2449 31.2179 89.8593 31.2179C90.4737 31.2179 91.0763 31.23 91.6671 31.2542C92.2696 31.2663 92.8427 31.2905 93.3862 31.3268L93.3153 32.7249H88.4414C88.087 32.7249 87.827 32.8156 87.6616 32.9972C87.4962 33.1788 87.4135 33.4693 87.4135 33.8687V41.1313C87.4135 41.5307 87.4962 41.8273 87.6616 42.021C87.827 42.2025 88.087 42.2933 88.4414 42.2933H93.3153L93.3862 43.6732C92.8427 43.7095 92.2696 43.7337 91.6671 43.7458C91.0763 43.7579 90.4737 43.764 89.8593 43.764C89.2449 43.7761 88.6423 43.7821 88.0515 43.7821C87.319 43.7821 86.7341 43.5824 86.297 43.183C85.8716 42.7714 85.653 42.2267 85.6412 41.5489V33.4511C85.653 32.7612 85.8716 32.2165 86.297 31.817C86.7341 31.4176 87.319 31.2179 88.0515 31.2179ZM85.9602 36.4651H92.6241V37.8631H85.9602V36.4651Z" fill="#20C1C7"/>
<path d="M100.043 31.0182C100.575 31.0182 101.03 31.0303 101.408 31.0545C101.786 31.0787 102.135 31.121 102.454 31.1816C102.773 31.23 103.103 31.3026 103.446 31.3994L103.269 32.7612C102.914 32.7249 102.584 32.7007 102.276 32.6885C101.969 32.6643 101.638 32.6462 101.284 32.6341C100.941 32.622 100.528 32.6159 100.043 32.6159C99.2871 32.6159 98.6904 32.7672 98.2533 33.0698C97.8161 33.3724 97.503 33.8808 97.3139 34.595C97.1367 35.297 97.0481 36.2654 97.0481 37.5C97.0481 38.7346 97.1367 39.709 97.3139 40.4232C97.503 41.1252 97.8161 41.6276 98.2533 41.9302C98.6904 42.2328 99.2871 42.3841 100.043 42.3841C100.811 42.3841 101.455 42.372 101.975 42.3478C102.507 42.3115 103.021 42.257 103.517 42.1844L103.694 43.5461C103.174 43.7034 102.637 43.8124 102.081 43.8729C101.538 43.9455 100.859 43.9818 100.043 43.9818C98.8618 43.9818 97.9106 43.7761 97.1899 43.3645C96.481 42.9409 95.967 42.257 95.648 41.3128C95.329 40.3687 95.1694 39.0978 95.1694 37.5C95.1694 35.9022 95.329 34.6313 95.648 33.6872C95.967 32.743 96.481 32.0652 97.1899 31.6536C97.9106 31.23 98.8618 31.0182 100.043 31.0182Z" fill="#20C1C7"/>
<path d="M110.362 31.236V43.764H108.59V31.236H110.362ZM114.262 31.236V32.7975H104.709V31.236H114.262Z" fill="#20C1C7"/>
<path d="M127.746 31.236L123.617 39.5698H122.004L117.857 31.236H119.735L122.217 36.3925C122.323 36.6224 122.418 36.8645 122.5 37.1187C122.583 37.3608 122.666 37.6029 122.748 37.845H122.872C122.955 37.6029 123.038 37.3608 123.121 37.1187C123.215 36.8645 123.31 36.6285 123.404 36.4106L125.885 31.236H127.746ZM123.688 38.3352V43.764H121.915V38.3352H123.688Z" fill="#20C1C7"/>
<path d="M133.604 31C134.502 31 135.264 31.1089 135.89 31.3268C136.529 31.5447 137.037 31.9018 137.415 32.398C137.793 32.8943 138.065 33.5601 138.23 34.3953C138.407 35.2304 138.496 36.2654 138.496 37.5C138.496 38.7225 138.407 39.7574 138.23 40.6047C138.065 41.4399 137.793 42.1057 137.415 42.602C137.037 43.0982 136.529 43.4553 135.89 43.6732C135.264 43.8911 134.502 44 133.604 44C132.706 44 131.938 43.8911 131.3 43.6732C130.674 43.4553 130.166 43.0982 129.776 42.602C129.398 42.1057 129.12 41.4399 128.943 40.6047C128.766 39.7574 128.677 38.7225 128.677 37.5C128.677 36.2654 128.766 35.2304 128.943 34.3953C129.12 33.5601 129.398 32.8943 129.776 32.398C130.166 31.9018 130.674 31.5447 131.3 31.3268C131.938 31.1089 132.706 31 133.604 31ZM133.604 32.5796C132.836 32.5796 132.228 32.7309 131.779 33.0335C131.33 33.3361 131.011 33.8445 130.822 34.5587C130.644 35.2607 130.556 36.2412 130.556 37.5C130.556 38.7467 130.644 39.7272 130.822 40.4413C131.011 41.1555 131.33 41.6639 131.779 41.9665C132.228 42.2691 132.836 42.4204 133.604 42.4204C134.372 42.4204 134.975 42.2691 135.412 41.9665C135.861 41.6639 136.18 41.1555 136.369 40.4413C136.558 39.7272 136.653 38.7467 136.653 37.5C136.653 36.2412 136.558 35.2607 136.369 34.5587C136.18 33.8445 135.861 33.3361 135.412 33.0335C134.975 32.7309 134.372 32.5796 133.604 32.5796Z" fill="#20C1C7"/>
<path d="M150.031 31.236V38.9344C150.031 40.1569 149.884 41.1434 149.588 41.8939C149.305 42.6322 148.838 43.1709 148.188 43.5098C147.538 43.8366 146.67 44 145.583 44C144.449 44 143.545 43.8366 142.871 43.5098C142.198 43.1709 141.707 42.6322 141.4 41.8939C141.105 41.1434 140.957 40.1569 140.957 38.9344V31.236H142.729V38.9344C142.729 39.8059 142.812 40.5019 142.978 41.0223C143.155 41.5307 143.444 41.8939 143.846 42.1117C144.259 42.3175 144.809 42.4204 145.494 42.4204C146.179 42.4204 146.717 42.3175 147.107 42.1117C147.509 41.8939 147.798 41.5307 147.975 41.0223C148.164 40.5019 148.259 39.8059 148.259 38.9344V31.236H150.031Z" fill="#20C1C7"/>
<path d="M157.226 31.0726C158.194 31.0726 158.974 31.1816 159.565 31.3994C160.168 31.6052 160.605 31.9744 160.876 32.507C161.148 33.0275 161.284 33.7598 161.284 34.7039C161.284 35.3696 161.207 35.9264 161.054 36.3743C160.9 36.8222 160.658 37.1732 160.327 37.4274C160.008 37.6816 159.571 37.845 159.016 37.9176V38.0084C159.216 38.0568 159.417 38.1536 159.618 38.2989C159.819 38.4441 160.008 38.6439 160.185 38.898C160.362 39.1401 160.492 39.4488 160.575 39.824L161.727 43.764H159.849L158.785 39.8603C158.643 39.4004 158.448 39.0736 158.2 38.8799C157.952 38.6862 157.627 38.5894 157.226 38.5894C156.481 38.5894 155.843 38.5894 155.311 38.5894C154.78 38.5773 154.331 38.5652 153.964 38.5531C153.61 38.541 153.321 38.5349 153.096 38.5349L153.149 37.0824H157.19C157.769 37.0703 158.224 37.0037 158.555 36.8827C158.886 36.7495 159.122 36.5196 159.264 36.1927C159.417 35.8659 159.494 35.406 159.494 34.8128C159.494 34.2197 159.417 33.7658 159.264 33.4511C159.122 33.1243 158.886 32.9004 158.555 32.7793C158.224 32.6462 157.769 32.5796 157.19 32.5796C156.198 32.5796 155.341 32.5857 154.62 32.5978C153.899 32.6099 153.415 32.6159 153.167 32.6159L152.919 31.236C153.368 31.1876 153.793 31.1513 154.195 31.1271C154.597 31.1029 155.034 31.0908 155.506 31.0908C155.991 31.0787 156.564 31.0726 157.226 31.0726ZM154.673 31.236V43.764H152.919V31.236H154.673Z" fill="#20C1C7"/>
<path d="M177.46 31.236V43.0559C177.46 43.5279 177.242 43.764 176.805 43.764H175.281C175.08 43.764 174.92 43.7155 174.802 43.6187C174.696 43.5219 174.601 43.3827 174.518 43.2011L170.513 34.7402C170.407 34.4981 170.283 34.2258 170.141 33.9232C169.999 33.6085 169.893 33.318 169.822 33.0517H169.556C169.58 33.3301 169.597 33.6145 169.609 33.905C169.621 34.1834 169.627 34.4679 169.627 34.7584V43.764H167.89V31.9441C167.89 31.4721 168.114 31.236 168.563 31.236H170.034C170.235 31.236 170.395 31.2844 170.513 31.3813C170.631 31.4781 170.732 31.6173 170.814 31.7989L174.678 40.0419C174.808 40.2961 174.944 40.5866 175.086 40.9134C175.239 41.2402 175.387 41.561 175.529 41.8757H175.812C175.789 41.5489 175.771 41.2281 175.759 40.9134C175.747 40.5866 175.741 40.2658 175.741 39.9511V31.236H177.46Z" fill="#20C1C7"/>
<path d="M182.742 31.2179C183.333 31.2179 183.935 31.2179 184.55 31.2179C185.164 31.2179 185.767 31.23 186.358 31.2542C186.96 31.2663 187.533 31.2905 188.077 31.3268L188.006 32.7249H183.132C182.778 32.7249 182.518 32.8156 182.352 32.9972C182.187 33.1788 182.104 33.4693 182.104 33.8687V41.1313C182.104 41.5307 182.187 41.8273 182.352 42.021C182.518 42.2025 182.778 42.2933 183.132 42.2933H188.006L188.077 43.6732C187.533 43.7095 186.96 43.7337 186.358 43.7458C185.767 43.7579 185.164 43.764 184.55 43.764C183.935 43.7761 183.333 43.7821 182.742 43.7821C182.01 43.7821 181.425 43.5824 180.987 43.183C180.562 42.7714 180.344 42.2267 180.332 41.5489V33.4511C180.344 32.7612 180.562 32.2165 180.987 31.817C181.425 31.4176 182.01 31.2179 182.742 31.2179ZM180.651 36.4651H187.315V37.8631H180.651V36.4651Z" fill="#20C1C7"/>
<path d="M199.251 31.236L196.061 37.2821L199.481 43.764H197.585L194.288 37.2821L197.372 31.236H199.251ZM191.435 31.236L194.519 37.2821L191.222 43.764H189.326L192.729 37.2821L189.556 31.236H191.435ZM195.405 36.6103V37.9358H193.367V36.6103H195.405Z" fill="#20C1C7"/>
<path d="M205.936 31.236V43.764H204.163V31.236H205.936ZM209.835 31.236V32.7975H200.282V31.236H209.835Z" fill="#20C1C7"/>
<path d="M219.791 31.236C219.945 31.236 220.081 31.2844 220.199 31.3813C220.317 31.466 220.4 31.581 220.447 31.7263L224.311 43.764H222.468L219.419 33.6872C219.372 33.5056 219.325 33.324 219.277 33.1425C219.23 32.9609 219.183 32.7914 219.136 32.6341H218.639C218.592 32.7914 218.545 32.9609 218.498 33.1425C218.45 33.324 218.397 33.5056 218.338 33.6872L215.29 43.764H213.464L217.328 31.7263C217.375 31.581 217.458 31.466 217.576 31.3813C217.694 31.2844 217.83 31.236 217.984 31.236H219.791ZM221.989 38.4441V39.9511H215.751V38.4441H221.989Z" fill="#20C1C7"/>
<path d="M230.371 31.0726C231.269 31.0726 232.025 31.1816 232.639 31.3994C233.266 31.6173 233.768 31.9744 234.146 32.4707C234.524 32.9548 234.796 33.6145 234.961 34.4497C235.138 35.2728 235.227 36.2896 235.227 37.5C235.227 38.7104 235.138 39.7332 234.961 40.5684C234.796 41.3915 234.524 42.0512 234.146 42.5475C233.768 43.0317 233.266 43.3827 232.639 43.6006C232.025 43.8184 231.269 43.9274 230.371 43.9274C229.52 43.9274 228.728 43.9092 227.996 43.8729C227.275 43.8487 226.59 43.8124 225.94 43.764L226.684 42.3115C227.181 42.3357 227.73 42.3599 228.333 42.3841C228.947 42.3962 229.626 42.4022 230.371 42.4022C231.127 42.4022 231.724 42.2509 232.161 41.9483C232.598 41.6457 232.905 41.1434 233.082 40.4413C233.272 39.7272 233.366 38.7467 233.366 37.5C233.366 36.2533 233.272 35.2789 233.082 34.5768C232.905 33.8627 232.598 33.3543 232.161 33.0517C231.724 32.737 231.127 32.5796 230.371 32.5796C229.638 32.5796 228.983 32.5857 228.404 32.5978C227.825 32.6099 227.257 32.622 226.702 32.6341L225.94 31.236C226.59 31.1876 227.275 31.1513 227.996 31.1271C228.728 31.0908 229.52 31.0726 230.371 31.0726ZM227.712 31.236V43.764H225.94V31.236H227.712Z" fill="#20C1C7"/>
<path d="M246.785 31.236L243.134 43.2556C243.087 43.3887 243.004 43.5098 242.886 43.6187C242.768 43.7155 242.632 43.764 242.478 43.764H240.724C240.558 43.764 240.417 43.7155 240.299 43.6187C240.18 43.5098 240.098 43.3887 240.05 43.2556L236.417 31.236H238.26L241.025 41.0042C241.084 41.2342 241.143 41.4642 241.202 41.6941C241.261 41.912 241.315 42.1359 241.362 42.3659H241.84C241.888 42.1359 241.941 41.906 242 41.676C242.059 41.446 242.124 41.216 242.195 40.986L244.942 31.236H246.785Z" fill="#20C1C7"/>
<path d="M250.848 31.2179C251.439 31.2179 252.041 31.2179 252.656 31.2179C253.27 31.2179 253.873 31.23 254.463 31.2542C255.066 31.2663 255.639 31.2905 256.183 31.3268L256.112 32.7249H251.238C250.883 32.7249 250.623 32.8156 250.458 32.9972C250.293 33.1788 250.21 33.4693 250.21 33.8687V41.1313C250.21 41.5307 250.293 41.8273 250.458 42.021C250.623 42.2025 250.883 42.2933 251.238 42.2933H256.112L256.183 43.6732C255.639 43.7095 255.066 43.7337 254.463 43.7458C253.873 43.7579 253.27 43.764 252.656 43.764C252.041 43.7761 251.439 43.7821 250.848 43.7821C250.115 43.7821 249.531 43.5824 249.093 43.183C248.668 42.7714 248.449 42.2267 248.438 41.5489V33.4511C248.449 32.7612 248.668 32.2165 249.093 31.817C249.531 31.4176 250.115 31.2179 250.848 31.2179ZM248.757 36.4651H255.421V37.8631H248.757V36.4651Z" fill="#20C1C7"/>
<path d="M268.101 31.236V43.0559C268.101 43.5279 267.882 43.764 267.445 43.764H265.921C265.72 43.764 265.561 43.7155 265.443 43.6187C265.336 43.5219 265.242 43.3827 265.159 43.2011L261.154 34.7402C261.047 34.4981 260.923 34.2258 260.781 33.9232C260.64 33.6085 260.533 33.318 260.462 33.0517H260.196C260.22 33.3301 260.238 33.6145 260.25 33.905C260.261 34.1834 260.267 34.4679 260.267 34.7584V43.764H258.53V31.9441C258.53 31.4721 258.755 31.236 259.204 31.236H260.675C260.876 31.236 261.035 31.2844 261.154 31.3813C261.272 31.4781 261.372 31.6173 261.455 31.7989L265.318 40.0419C265.448 40.2961 265.584 40.5866 265.726 40.9134C265.88 41.2402 266.027 41.561 266.169 41.8757H266.453C266.429 41.5489 266.411 41.2281 266.4 40.9134C266.388 40.5866 266.382 40.2658 266.382 39.9511V31.236H268.101Z" fill="#20C1C7"/>
<path d="M275.651 31.236V43.764H273.879V31.236H275.651ZM279.55 31.236V32.7975H269.997V31.236H279.55Z" fill="#20C1C7"/>
<path d="M290.432 31.236V38.9344C290.432 40.1569 290.284 41.1434 289.988 41.8939C289.705 42.6322 289.238 43.1709 288.588 43.5098C287.938 43.8366 287.07 44 285.983 44C284.849 44 283.945 43.8366 283.271 43.5098C282.598 43.1709 282.108 42.6322 281.8 41.8939C281.505 41.1434 281.357 40.1569 281.357 38.9344V31.236H283.13V38.9344C283.13 39.8059 283.212 40.5019 283.378 41.0223C283.555 41.5307 283.844 41.8939 284.246 42.1117C284.66 42.3175 285.209 42.4204 285.894 42.4204C286.58 42.4204 287.117 42.3175 287.507 42.1117C287.909 41.8939 288.198 41.5307 288.376 41.0223C288.565 40.5019 288.659 39.8059 288.659 38.9344V31.236H290.432Z" fill="#20C1C7"/>
<path d="M297.626 31.0726C298.595 31.0726 299.374 31.1816 299.965 31.3994C300.568 31.6052 301.005 31.9744 301.277 32.507C301.548 33.0275 301.684 33.7598 301.684 34.7039C301.684 35.3696 301.608 35.9264 301.454 36.3743C301.3 36.8222 301.058 37.1732 300.727 37.4274C300.408 37.6816 299.971 37.845 299.416 37.9176V38.0084C299.617 38.0568 299.817 38.1536 300.018 38.2989C300.219 38.4441 300.408 38.6439 300.585 38.898C300.763 39.1401 300.893 39.4488 300.975 39.824L302.127 43.764H300.249L299.185 39.8603C299.044 39.4004 298.849 39.0736 298.6 38.8799C298.352 38.6862 298.027 38.5894 297.626 38.5894C296.881 38.5894 296.243 38.5894 295.712 38.5894C295.18 38.5773 294.731 38.5652 294.365 38.5531C294.01 38.541 293.721 38.5349 293.496 38.5349L293.549 37.0824H297.59C298.169 37.0703 298.624 37.0037 298.955 36.8827C299.286 36.7495 299.522 36.5196 299.664 36.1927C299.817 35.8659 299.894 35.406 299.894 34.8128C299.894 34.2197 299.817 33.7658 299.664 33.4511C299.522 33.1243 299.286 32.9004 298.955 32.7793C298.624 32.6462 298.169 32.5796 297.59 32.5796C296.598 32.5796 295.741 32.5857 295.02 32.5978C294.3 32.6099 293.815 32.6159 293.567 32.6159L293.319 31.236C293.768 31.1876 294.193 31.1513 294.595 31.1271C294.997 31.1029 295.434 31.0908 295.907 31.0908C296.391 31.0787 296.964 31.0726 297.626 31.0726ZM295.074 31.236V43.764H293.319V31.236H295.074Z" fill="#20C1C7"/>
<path d="M306.665 31.2179C307.256 31.2179 307.859 31.2179 308.473 31.2179C309.087 31.2179 309.69 31.23 310.281 31.2542C310.883 31.2663 311.456 31.2905 312 31.3268L311.929 32.7249H307.055C306.701 32.7249 306.441 32.8156 306.275 32.9972C306.11 33.1788 306.027 33.4693 306.027 33.8687V41.1313C306.027 41.5307 306.11 41.8273 306.275 42.021C306.441 42.2025 306.701 42.2933 307.055 42.2933H311.929L312 43.6732C311.456 43.7095 310.883 43.7337 310.281 43.7458C309.69 43.7579 309.087 43.764 308.473 43.764C307.859 43.7761 307.256 43.7821 306.665 43.7821C305.933 43.7821 305.348 43.5824 304.911 43.183C304.485 42.7714 304.267 42.2267 304.255 41.5489V33.4511C304.267 32.7612 304.485 32.2165 304.911 31.817C305.348 31.4176 305.933 31.2179 306.665 31.2179ZM304.574 36.4651H311.238V37.8631H304.574V36.4651Z" fill="#20C1C7"/>
</svg>
