<svg width="312" height="24" viewBox="0 0 312 24" fill="none" xmlns="http://www.w3.org/2000/svg">
<path d="M34.3923 1.32353C35.5401 -0.160737 37.6802 -0.438443 39.1724 0.70326C40.6646 1.84496 40.9438 3.97373 39.796 5.458L26.4949 22.6581C25.3471 24.1423 23.207 24.42 21.7148 23.2783C20.2226 22.1366 19.9434 20.0079 21.0912 18.5236L34.3923 1.32353Z" fill="#730962"/>
<path d="M14.0081 1.34194C15.1559 -0.142326 17.2961 -0.420032 18.7883 0.721671C20.2805 1.86337 20.5597 3.99215 19.4119 5.47641L6.11079 22.6765C4.96298 24.1607 2.82282 24.4384 1.33061 23.2967C-0.161597 22.155 -0.440788 20.0263 0.707021 18.542L14.0081 1.34194Z" fill="#730962"/>
<path d="M82.5685 8.75189C82.5685 10.246 82.1915 11.6102 81.4375 12.8445C80.7057 14.0572 79.7078 15.0316 78.4438 15.7678C77.1798 16.5041 75.7827 16.8722 74.2526 16.8722H60.8807V13.6566H74.2526C75.184 13.6566 76.0267 13.44 76.7807 13.0069C77.5346 12.5522 78.1334 11.9567 78.5769 11.2205C79.0204 10.4626 79.2421 9.63971 79.2421 8.75189C79.2421 7.84242 79.0204 7.01956 78.5769 6.28332C78.1334 5.54708 77.5346 4.96242 76.7807 4.52934C76.0267 4.09625 75.184 3.87971 74.2526 3.87971H59.018V23.3684H55.6917V0.631592H74.2526C75.7827 0.631592 77.1798 0.999712 78.4438 1.73595C79.7078 2.45054 80.7057 3.42498 81.4375 4.65926C82.1915 5.89355 82.5685 7.25776 82.5685 8.75189Z" fill="#F5B9EB"/>
<path d="M107.186 23.3684H102.662L97.4734 18.5287H90.7209V15.3131H99.9348C100.866 15.3131 101.653 14.9883 102.297 14.3387C102.962 13.6674 103.294 12.8878 103.294 12C103.294 11.0905 102.962 10.3218 102.297 9.69385C101.653 9.04422 100.866 8.71941 99.9348 8.71941H88.9912V23.3684H85.6648V5.50377H99.9348C101.177 5.50377 102.297 5.7961 103.294 6.38077C104.292 6.96543 105.091 7.7558 105.689 8.75189C106.288 9.72633 106.588 10.809 106.588 12C106.588 12.9744 106.377 13.8947 105.956 14.7609C105.556 15.6054 104.991 16.3417 104.259 16.9696C103.549 17.576 102.729 18.009 101.798 18.2689L107.186 23.3684Z" fill="#F5B9EB"/>
<path d="M129.641 23.3684H110.547V5.43881H129.641V8.71941H113.907V20.0878H129.641V23.3684ZM127.512 15.9627H115.47V12.6821H127.512V15.9627Z" fill="#F5B9EB"/>
<path d="M153.376 18.1065C153.376 19.0809 153.132 19.9687 152.645 20.7699C152.179 21.5495 151.536 22.1775 150.715 22.6538C149.895 23.1302 148.986 23.3684 147.988 23.3684H132.454V20.1203H147.988C148.564 20.1203 149.052 19.9254 149.451 19.5357C149.873 19.1459 150.083 18.6695 150.083 18.1065C150.083 17.5435 149.873 17.0671 149.451 16.6773C149.052 16.2659 148.564 16.0602 147.988 16.0602H137.809C136.833 16.0602 135.935 15.822 135.115 15.3456C134.316 14.8692 133.673 14.2304 133.186 13.4292C132.698 12.628 132.454 11.7402 132.454 10.7657C132.454 9.81295 132.698 8.93595 133.186 8.13475C133.673 7.33355 134.316 6.69475 135.115 6.21836C135.935 5.74197 136.833 5.50377 137.809 5.50377H152.146V8.71941H137.809C137.255 8.71941 136.767 8.92513 136.346 9.33655C135.946 9.72633 135.747 10.2027 135.747 10.7657C135.747 11.3287 135.946 11.816 136.346 12.2274C136.767 12.6172 137.255 12.812 137.809 12.812H147.988C148.986 12.812 149.895 13.0502 150.715 13.5266C151.536 14.003 152.179 14.6418 152.645 15.443C153.132 16.2442 153.376 17.132 153.376 18.1065Z" fill="#F5B9EB"/>
<path d="M176.895 18.1065C176.895 19.0809 176.651 19.9687 176.163 20.7699C175.697 21.5495 175.054 22.1775 174.234 22.6538C173.413 23.1302 172.504 23.3684 171.506 23.3684H155.972V20.1203H171.506C172.083 20.1203 172.57 19.9254 172.97 19.5357C173.391 19.1459 173.602 18.6695 173.602 18.1065C173.602 17.5435 173.391 17.0671 172.97 16.6773C172.57 16.2659 172.083 16.0602 171.506 16.0602H161.327C160.352 16.0602 159.454 15.822 158.633 15.3456C157.835 14.8692 157.192 14.2304 156.704 13.4292C156.216 12.628 155.972 11.7402 155.972 10.7657C155.972 9.81295 156.216 8.93595 156.704 8.13475C157.192 7.33355 157.835 6.69475 158.633 6.21836C159.454 5.74197 160.352 5.50377 161.327 5.50377H175.664V8.71941H161.327C160.773 8.71941 160.285 8.92513 159.864 9.33655C159.465 9.72633 159.265 10.2027 159.265 10.7657C159.265 11.3287 159.465 11.816 159.864 12.2274C160.285 12.6172 160.773 12.812 161.327 12.812H171.506C172.504 12.812 173.413 13.0502 174.234 13.5266C175.054 14.003 175.697 14.6418 176.163 15.443C176.651 16.2442 176.895 17.132 176.895 18.1065Z" fill="#F5B9EB"/>
<path d="M218.941 16.8722C218.941 18.0632 218.641 19.1567 218.043 20.1528C217.444 21.1272 216.645 21.9068 215.648 22.4914C214.65 23.0761 213.53 23.3684 212.288 23.3684H192.064V20.1203H212.288C213.219 20.1203 214.007 19.8063 214.65 19.1784C215.293 18.5287 215.614 17.76 215.614 16.8722C215.614 15.9844 215.293 15.2265 214.65 14.5985C214.007 13.9489 213.219 13.6241 212.288 13.6241H198.717C197.497 13.6241 196.377 13.3317 195.357 12.7471C194.359 12.1624 193.561 11.3829 192.962 10.4084C192.363 9.41234 192.064 8.31881 192.064 7.12783C192.064 5.93686 192.363 4.85415 192.962 3.87971C193.561 2.88362 194.359 2.09325 195.357 1.50858C196.377 0.923923 197.497 0.631592 198.717 0.631592H217.277V3.87971H198.717C197.807 3.87971 197.02 4.20452 196.355 4.85415C195.712 5.48212 195.39 6.24001 195.39 7.12783C195.39 8.01565 195.712 8.78437 196.355 9.434C197.02 10.062 197.807 10.376 198.717 10.376H212.288C213.53 10.376 214.65 10.6683 215.648 11.2529C216.645 11.8376 217.444 12.628 218.043 13.6241C218.641 14.5985 218.941 15.6812 218.941 16.8722Z" fill="#F5B9EB"/>
<path d="M231.949 23.3684H228.623V8.71941H219.808V5.50377H240.731V8.71941H231.949V23.3684Z" fill="#F5B9EB"/>
<path d="M263.582 23.3684H260.255V18.4638H247.449V15.1507H260.255V8.71941H251.607C250.52 8.71941 249.533 8.97926 248.646 9.49896C247.759 10.0187 247.05 10.7116 246.518 11.5778C245.985 12.4223 245.719 13.3751 245.719 14.4361V23.3684H242.36V14.4361C242.36 13.2018 242.593 12.0433 243.058 10.9606C243.546 9.85625 244.211 8.89264 245.054 8.06979C245.919 7.24693 246.906 6.60813 248.014 6.1534C249.145 5.677 250.343 5.43881 251.607 5.43881H263.582V23.3684Z" fill="#F5B9EB"/>
<path d="M289.908 23.3684H285.384L280.195 18.5287H273.442V15.3131H282.656C283.588 15.3131 284.375 14.9883 285.018 14.3387C285.683 13.6674 286.016 12.8878 286.016 12C286.016 11.0905 285.683 10.3218 285.018 9.69385C284.375 9.04422 283.588 8.71941 282.656 8.71941H271.713V23.3684H268.386V5.50377H282.656C283.898 5.50377 285.018 5.7961 286.016 6.38077C287.014 6.96543 287.812 7.7558 288.411 8.75189C289.01 9.72633 289.309 10.809 289.309 12C289.309 12.9744 289.098 13.8947 288.677 14.7609C288.278 15.6054 287.712 16.3417 286.98 16.9696C286.271 17.576 285.45 18.009 284.519 18.2689L289.908 23.3684Z" fill="#F5B9EB"/>
<path d="M303.218 23.3684H299.892V8.71941H291.077V5.50377H312V8.71941H303.218V23.3684Z" fill="#F5B9EB"/>
</svg>
